<?xml version="1.0" standalone="no"?><!DOCTYPE svg PUBLIC "-//W3C//DTD SVG 1.1//EN" "http://www.w3.org/Graphics/SVG/1.1/DTD/svg11.dtd"><svg t="1544878054409" class="icon" style="" viewBox="0 0 1024 1024" version="1.1" xmlns="http://www.w3.org/2000/svg" p-id="2149" xmlns:xlink="http://www.w3.org/1999/xlink" width="200" height="200"><defs><style type="text/css"></style></defs><path d="M524.9024 808.1408 341.1968 808.1408c-33.6896 0-52.8384-18.3296-57.4464-55.0912C279.1424 717.824 268.0832 683.008 250.4704 648.6016c-17.6128-34.4064-33.28-60.1088-47.104-76.9024C189.6448 554.8032 181.9648 546.4064 180.4288 546.4064 128.4096 482.0992 102.4 410.2144 102.4 330.6496c0-90.3168 32.5632-168.0384 97.5872-233.0624C265.0112 32.5632 342.7328 0 433.0496 0c90.3168 0 167.936 32.5632 233.0624 97.5872C731.136 162.6112 763.5968 240.3328 763.5968 330.6496c0 81.1008-26.0096 152.2688-78.0288 213.504-58.1632 58.1632-92.5696 127.7952-103.3216 208.896 0 12.288-5.0176 24.4736-14.9504 36.7616C557.3632 802.0992 543.232 808.1408 524.9024 808.1408zM139.1616 330.6496c0 71.8848 22.9376 135.4752 68.9152 190.5664C270.7456 583.9872 308.224 659.6608 320.512 748.4416c0 15.2576 6.8608 22.9376 20.6848 22.9376l183.7056 0c13.824 0 20.6848-7.68 20.6848-22.9376 3.072-18.3296 7.2704-36.352 12.5952-53.9648 5.3248-17.6128 11.0592-33.6896 17.2032-48.2304 6.144-14.5408 13.0048-28.2624 20.6848-41.3696C603.648 591.9744 611.328 580.5056 619.008 570.5728 626.688 560.64 633.1392 551.8336 638.464 544.1536c5.3248-7.68 10.3424-13.824 14.9504-18.3296l4.608-6.8608c45.8752-53.5552 68.9152-116.3264 68.9152-188.2112 0-81.1008-28.672-150.4256-86.1184-207.7696C583.3728 65.4336 514.1504 36.7616 433.0496 36.7616 351.8464 36.7616 282.624 65.4336 225.28 122.88 167.8336 180.224 139.1616 249.4464 139.1616 330.6496zM341.1968 881.664c-9.216 0-15.36-4.608-18.3296-13.824-3.072-12.288 1.536-19.8656 13.824-22.9376l183.7056-36.7616c12.288-3.072 19.8656 1.536 22.9376 13.824 3.072 12.288-1.536 19.8656-13.824 22.9376L345.8048 881.664 341.1968 881.664zM341.1968 955.0848c-9.216 0-15.36-4.608-18.3296-13.824-3.072-12.288 1.536-19.8656 13.824-22.9376L520.2944 881.664C532.48 878.592 540.16 883.2 543.232 895.3856c3.072 12.288-1.536 19.8656-13.824 22.9376L345.8048 955.0848 341.1968 955.0848zM359.5264 1024c-9.216 0-15.36-4.608-18.3296-13.824-3.072-13.824 1.536-20.6848 13.824-20.6848l146.944-29.7984c12.288-3.072 19.8656 1.536 22.9376 13.824 3.072 13.824-1.536 20.6848-13.824 20.6848L364.1344 1024 359.5264 1024z" p-id="2150"></path></svg>