<?xml version="1.0" standalone="no"?><!DOCTYPE svg PUBLIC "-//W3C//DTD SVG 1.1//EN" "http://www.w3.org/Graphics/SVG/1.1/DTD/svg11.dtd"><svg t="1544327861228" class="icon" style="" viewBox="0 0 1024 1024" version="1.1" xmlns="http://www.w3.org/2000/svg" p-id="7107" xmlns:xlink="http://www.w3.org/1999/xlink" width="200" height="200"><defs><style type="text/css"></style></defs><path d="M888.67373047 811.43720703l-188.50341797-188.72050781c39.35566406-53.48583984 60.87568359-117.84111328 60.87568359-185.45976563 0-84.13945313-32.83066406-163.28320313-92.18759765-222.63662109-59.57314453-59.3578125-138.71337891-92.18759766-222.85283203-92.18759766s-163.28320313 32.83066406-222.6366211 92.18759766c-122.62324219 122.62324219-122.62324219 322.43466797 0 445.27675781 59.3578125 59.3578125 138.49716797 92.18759766 222.6366211 92.18759766 67.83398438 0 131.97216797-21.52177734 185.67509765-60.87568359l188.50341797 188.72050781c18.9140625 18.9140625 49.57294922 18.9140625 68.26992188 0 19.13378906-18.9140625 19.13378906-49.57294922 0.21972656-68.48525391zM284.24550781 599.23671875c-89.14306641-89.36103516-89.14306641-234.59414062 0-323.73808594 43.26591797-43.26591797 100.66552734-66.965625 161.97802735-66.965625 61.09365234 0 118.49326172 23.70058594 161.76005859 66.965625 43.26591797 43.26591797 67.18623047 100.66552734 67.18623047 161.97802735 0 61.31425781-23.91591797 118.70947266-67.18623047 161.97802734-43.26591797 43.26591797-100.66552734 66.965625-161.76005859 66.965625-61.31425781-0.21972656-118.70947266-23.91591797-161.97802735-67.18623047z" p-id="7108" fill="#d81e06"></path></svg>