<?xml version="1.0" standalone="no"?><!DOCTYPE svg PUBLIC "-//W3C//DTD SVG 1.1//EN" "http://www.w3.org/Graphics/SVG/1.1/DTD/svg11.dtd"><svg t="1545142549816" class="icon" style="" viewBox="0 0 1024 1024" version="1.1" xmlns="http://www.w3.org/2000/svg" p-id="6682" xmlns:xlink="http://www.w3.org/1999/xlink" width="200" height="200"><defs><style type="text/css"></style></defs><path d="M605.6 642.7c-4.8 0-9.6-1.8-13.2-5.5l-93.3-93.3c-3.5-3.5-5.5-8.2-5.5-13.2V325.3c0-10.3 8.4-18.7 18.7-18.7 10.3 0 18.7 8.4 18.7 18.7V523l87.9 87.9c7.3 7.3 7.3 19.1 0 26.4-3.7 3.6-8.5 5.4-13.3 5.4z" fill="#d81e06" p-id="6683"></path><path d="M512.3 101.3C738.8 101.3 923 285.5 923 512S738.8 922.7 512.3 922.7 101.6 738.5 101.6 512s184.2-410.7 410.7-410.7m0-37.4C264.8 63.9 64.2 264.6 64.2 512s200.6 448.1 448.1 448.1S960.4 759.5 960.4 512 759.7 63.9 512.3 63.9z" fill="#d81e06" p-id="6684"></path></svg>