<?xml version="1.0" standalone="no"?><!DOCTYPE svg PUBLIC "-//W3C//DTD SVG 1.1//EN" "http://www.w3.org/Graphics/SVG/1.1/DTD/svg11.dtd"><svg t="1545723032075" class="icon" style="" viewBox="0 0 1024 1024" version="1.1" xmlns="http://www.w3.org/2000/svg" p-id="4842" xmlns:xlink="http://www.w3.org/1999/xlink" width="200" height="200"><defs><style type="text/css"></style></defs><path d="M177.872 696.432l605.84-605.84 149.344 149.336-605.84 605.84z" fill="#41DDC8" p-id="4843"></path><path d="M60.8 900.8l62.4 62.4 204-117.6-148.8-148.8z" fill="#A5A7FF" p-id="4844"></path><path d="M20.384 962.6l50.912-50.912 40.72 40.72-50.904 50.92z" fill="#B3B3B3" p-id="4845"></path><path d="M646.6 141.12l45.256-45.264 192.896 192.904-45.256 45.248z" fill="#E6E6E6" p-id="4846"></path><path d="M826.136 133.024l112.568-112.568 65.056 65.048L891.2 198.08z" fill="#41DDC8" p-id="4847"></path><path d="M424 335.2c-8 8-8 20.8 0 28.8 4 4 9.6 5.6 14.4 5.6s10.4-1.6 14.4-5.6l194.4-194.4 14.4 14.4-497.6 498.4c-1.6 1.6-2.4 2.4-3.2 4L42.4 891.2c-4 6.4-3.2 14.4 0 20.8l-36.8 36.8c-3.2 3.2-5.6 8.8-5.6 14.4s2.4 10.4 5.6 14.4l40.8 40.8c4 4 9.6 5.6 14.4 5.6s10.4-1.6 14.4-5.6l36.8-36.8c3.2 1.6 7.2 3.2 10.4 3.2s7.2-0.8 10.4-2.4L337.6 864c1.6-0.8 3.2-1.6 4-3.2l605.6-605.6c8-8 8-20.8 0-28.8l-28-28 97.6-97.6c8-8 8-20.8 0-28.8L952 7.2c-2.4-4.8-8-7.2-13.6-7.2s-10.4 2.4-14.4 5.6L826.4 104l-28-28c-8-8-20.8-8-28.8 0l-34.4 34.4-28.8-28.8c-4-4-8.8-5.6-14.4-5.6s-10.4 2.4-14.4 5.6L424 335.2z m360-216L904.8 240l-20 20-120.8-120.8 20-20z m-92 5.6L856 288.8l-16 16-164.8-164 16.8-16z m118.4 208.8l-483.2 483.2-120-120 483.2-483.2 120 120zM60.8 974.4l-12-12 22.4-22.4 12 12-22.4 22.4z m233.6-132.8l-168 96.8-40.8-40.8 96.8-168 112 112z m560.8-708.8l83.2-83.2 36 36-83.2 83.2-36-36z" fill="#603813" p-id="4848"></path><path d="M314.4 770.4c4 4 9.6 5.6 14.4 5.6s10.4-1.6 14.4-5.6l160-160c8-8 8-20.8 0-28.8s-20.8-8-28.8 0l-160 160c-8 8-8 20.8 0 28.8zM532.8 572c5.6 0 10.4-1.6 14.4-5.6l5.6-5.6c8-8 8-20.8 0-28.8s-20.8-8-28.8 0l-5.6 5.6c-8 8-8 20.8 0 28.8 4 4 8.8 5.6 14.4 5.6z" fill="#603813" p-id="4849"></path></svg>