<?xml version="1.0" standalone="no"?><!DOCTYPE svg PUBLIC "-//W3C//DTD SVG 1.1//EN" "http://www.w3.org/Graphics/SVG/1.1/DTD/svg11.dtd"><svg t="1544545005776" class="icon" style="" viewBox="0 0 1024 1024" version="1.1" xmlns="http://www.w3.org/2000/svg" p-id="1945" xmlns:xlink="http://www.w3.org/1999/xlink" width="200" height="200"><defs><style type="text/css"></style></defs><path d="M876.032 906.24l-1.536-4.608c-0.512-5.632-1.536-11.264-3.584-16.896-3.072-9.216-7.168-17.92-11.776-26.624-6.144-13.824-12.8-24.576-19.968-31.232-2.048-2.048-4.608-4.096-8.192-6.656-1.536-1.024-2.56-2.048-4.096-3.584-12.288-11.264-26.624-20.992-41.984-28.672-12.288-7.168-26.624-15.872-44.032-25.088 0-0.512-0.512-1.024-0.512-1.536l-62.464-16.384-44.544-11.264-37.376-9.728v-77.312c35.328-25.088 68.608-55.296 79.36-71.68 4.096-6.144 11.776-26.112 18.944-54.784v-0.512c1.536 1.024 3.072 2.048 4.608 2.56 14.848 5.12 33.792-12.288 42.496-37.888 8.192-26.112 3.072-50.688-11.776-55.808-3.584-1.024-7.68-1.024-11.264 0 39.936-107.52-8.192-227.84-111.616-277.504 12.288-53.248-20.992-105.984-74.24-118.272S427.52 54.272 415.232 107.52c-3.072 14.336-3.072 29.184 0 44.032C312.32 201.216 263.68 321.536 304.128 429.056c-4.096-1.536-8.192-1.536-11.776-0.512-14.848 5.12-19.968 30.208-11.776 55.808 8.704 26.112 27.648 43.008 42.496 37.888 2.048-0.512 4.096-1.536 5.632-3.072 7.168 28.672 14.848 49.152 18.944 55.296 10.752 15.872 43.52 46.592 78.848 71.168v72.704l-72.192 20.48-64 17.92s0 0.512-0.512 1.024c-20.48 10.752-37.376 20.48-51.2 29.184-19.968 9.728-34.304 17.408-37.376 19.456-29.184 19.968-44.544 51.2-52.736 81.408-11.776 45.056 19.968 90.112 64 90.112h596.992c38.4 0 67.584-34.304 66.56-72.192v0.512z" p-id="1946" fill="#d81e06"></path></svg>