<?xml version="1.0" standalone="no"?><!DOCTYPE svg PUBLIC "-//W3C//DTD SVG 1.1//EN" "http://www.w3.org/Graphics/SVG/1.1/DTD/svg11.dtd"><svg t="1544546887960" class="icon" style="" viewBox="0 0 1024 1024" version="1.1" xmlns="http://www.w3.org/2000/svg" p-id="4340" xmlns:xlink="http://www.w3.org/1999/xlink" width="200" height="200"><defs><style type="text/css"></style></defs><path d="M511.998465 910.228817c-3.747347 0-7.962346-0.936325-11.242042-2.809999-4.218068-2.341325-109.162212-60.906162-215.044728-156.950611C222.930837 693.780113 172.801113 635.684974 136.725476 578.061578 90.344123 504.503259 66.918597 430.949033 66.918597 359.736131c0-135.397736 110.568235-245.965971 245.965971-245.965971 45.913703 0 94.637404 17.333784 137.272434 48.25605 24.831548 18.271132 46.38033 40.290635 61.841463 63.716161 15.461133-23.425525 37.012985-45.445028 61.844533-63.716161 42.632983-31.389918 91.357707-48.25605 137.27141-48.25605 135.397736 0 245.966994 110.098537 245.966995 245.965971 0 71.211878-23.426549 144.767128-69.339228 218.325447-36.075637 57.624419-86.207407 115.718535-148.987243 172.406629C632.404766 846.512656 527.930319 904.607796 523.711228 907.418818c-3.748371 1.873674-7.965415 2.809999-11.712763 2.809999zM312.884568 160.621211c-109.629863 0-199.11492 89.485057-199.11492 199.11492 0 142.423757 110.098537 271.732821 202.394617 355.126136 82.458013 74.493621 165.850305 126.965693 195.835223 144.769175 29.983895-17.802458 113.37721-69.806879 195.835224-144.769175 92.295056-83.393315 202.394616-212.70238 202.394617-355.126136 0-109.629863-89.483011-199.11492-199.114921-199.11492-79.643921 0-157.417239 65.590857-177.094394 124.622322-3.279696 9.370415-12.17939 15.928784-22.021549 15.928784-9.837042 0-19.208481-6.558369-22.018479-15.928784-19.677155-59.031465-97.450473-124.622322-177.095418-124.622322z" fill="" p-id="4341"></path></svg>