<?xml version="1.0" standalone="no"?><!DOCTYPE svg PUBLIC "-//W3C//DTD SVG 1.1//EN" "http://www.w3.org/Graphics/SVG/1.1/DTD/svg11.dtd"><svg t="1545723142908" class="icon" style="" viewBox="0 0 1024 1024" version="1.1" xmlns="http://www.w3.org/2000/svg" p-id="7940" xmlns:xlink="http://www.w3.org/1999/xlink" width="200" height="200"><defs><style type="text/css"></style></defs><path d="M534.2 98h-44.4l-0.3-26h45z" fill="#444969" p-id="7941"></path><path d="M489.8 98h44.4l-6.7 524h-31zM539.7 801.3c0 11.3-1 23.7-2.5 36.4h-50.3c-1.6-12.7-2.5-25-2.5-36.4 0-60.3 0-105.7 27.7-105.7 27.6 0 27.6 45.4 27.6 105.7z" fill="#DE3D2F" p-id="7942"></path><path d="M486.9 837.7h50.3C530.3 892.4 512 952 512 952s-18.3-59.6-25.1-114.3zM496.5 622l-12.2 138.8h55.4L527.5 622z" fill="#444969" p-id="7943"></path></svg>