<?xml version="1.0" standalone="no"?><!DOCTYPE svg PUBLIC "-//W3C//DTD SVG 1.1//EN" "http://www.w3.org/Graphics/SVG/1.1/DTD/svg11.dtd"><svg t="1544115454254" class="icon" style="" viewBox="0 0 1024 1024" version="1.1" xmlns="http://www.w3.org/2000/svg" p-id="2949" xmlns:xlink="http://www.w3.org/1999/xlink" width="200" height="200"><defs><style type="text/css"></style></defs><path d="M959.3 511.6c0 11.2-3.4 22.6-10 34.1-46.7 76-109.5 136.9-188.4 182.7C682 774.1 598.7 797 511 797s-171-23-249.9-68.9c-78.9-45.9-141.7-106.7-188.4-182.4-6.7-11.5-10-23-10-34.2 0-11.3 3.4-22.6 10-34.2C119.3 401.8 182.1 341 261 295.1c78.9-45.9 162.3-68.9 250-68.9s171 23 249.9 68.9c78.9 45.9 141.7 106.7 188.4 182.3 6.7 11.5 10 23 10 34.2z m-64 0c-50.7-78-114.2-136.3-190.6-174.9 20.3 34.3 30.5 71.5 30.5 111.5 0 61.1-22 113.3-65.8 156.8-43.9 43.4-96.7 65.2-158.4 65.2S396.5 648.5 352.6 605s-65.8-95.7-65.8-156.8c0-40 10.2-77.2 30.5-111.5-76.4 38.7-140 96.9-190.7 174.9 44.4 67.7 100 121.6 166.9 161.8 66.8 40.1 139.3 60.2 217.4 60.2 78 0 150.6-20.1 217.4-60.2 67-40.2 122.6-94.1 167-161.8zM528 338.2c4.6-4.6 7-10.3 7-16.9 0-6.6-2.4-12.2-7-16.9-4.7-4.6-10.3-6.9-17-6.9-41.7 0-77.5 14.8-107.4 44.4-29.8 29.5-44.7 64.9-44.7 106.2 0 6.6 2.4 12.2 7 16.8 4.7 4.6 10.4 6.9 17 6.9 6.7 0 12.3-2.3 17-6.9 4.6-4.7 7-10.3 7-16.8 0-28.4 10.1-52.7 30.5-72.8 20.3-20.1 44.9-30.3 73.6-30.3 6.7 0.1 12.4-2.2 17-6.8z m0 0" p-id="2950" fill="#d81e06"></path></svg>