<?xml version="1.0" standalone="no"?><!DOCTYPE svg PUBLIC "-//W3C//DTD SVG 1.1//EN" "http://www.w3.org/Graphics/SVG/1.1/DTD/svg11.dtd"><svg t="1545143014676" class="icon" style="" viewBox="0 0 1024 1024" version="1.1" xmlns="http://www.w3.org/2000/svg" p-id="7757" xmlns:xlink="http://www.w3.org/1999/xlink" width="200" height="200"><defs><style type="text/css"></style></defs><path d="M819.098795 732.022089c30.484292-53.063543 40.48404-112.305809 58.805314-183.936219-15.495926 60.306504-123.456776 66.833151-177.566138 89.603761 96.199992-40.46562 173.814698-136.133493 177.479157-257.042237-39.872103 37.778418-62.293765 80.163761-122.843816 84.674495 51.9113-68.288293 67.476811-151.374616 77.772294-237.270938-0.732687-51.711755 3.751441-102.402251-7.938809-162.760944-19.056008 37.936007-29.402657 78.244039-72.417333 138.986471-56.326866 79.613222-138.02661 156.069545-363.212302 210.81745-6.78759 1.657756-16.140609 10.251481-25.302269-3.882424-6.909363-10.32209-28.89612-41.966811 104.208387-103.607706 23.539112-10.906397 43.902906-22.187325 64.267722-44.00012-22.597671 24.211425-182.871981 5.086855-290.692638 122.932844-57.444317 62.757323-94.542236 141.219325-94.856391 240.264109-0.697895 51.78134-5.548366 102.778828 24.446785 161.565722 11.08036-112.943328 56.55404-196.438974 160.885224-239.539608-14.012132 31.889291-40.203654 49.66105-28.984125 99.479689 26.698059-54.982242 57.094346-94.924953 103.440907-120.331599-20.207227 39.087227-7.922437 70.365604-7.922437 70.365604 102.987582-89.629343 212.552977-104.941074 212.552977-104.941074S442.135304 647.827525 459.357548 806.863634c42.367947-30.607088 63.587224-66.290799 77.773318-107.664092 16.280802 10.730389 35.823903 140.556223-70.042239 203.087395-33.345456 19.718087-72.241324 28.965705-105.168248 49.381687 132.791375 23.130813 234.82012-12.973476 324.07391-75.468832C744.537635 841.630463 785.857716 789.981129 819.098795 732.022089L819.098795 732.022089zM819.098795 732.022089" p-id="7758" fill="#d81e06"></path></svg>