<?xml version="1.0" standalone="no"?><!DOCTYPE svg PUBLIC "-//W3C//DTD SVG 1.1//EN" "http://www.w3.org/Graphics/SVG/1.1/DTD/svg11.dtd"><svg t="1544545026138" class="icon" style="" viewBox="0 0 1024 1024" version="1.1" xmlns="http://www.w3.org/2000/svg" p-id="2710" xmlns:xlink="http://www.w3.org/1999/xlink" width="200" height="200"><defs><style type="text/css"></style></defs><path d="M846.3872 819.5072c-56.081067-37.632-224.3072-94.088533-234.7008-129.621333-10.376533-35.549867-2.065067-96.187733-2.065067-96.187734s33.2288-35.5328 45.687467-100.352c0 0 35.310933-16.725333 37.376-54.340266 2.082133-37.632-14.523733-48.093867-14.523733-48.093867V370.005333s16.605867-27.170133 16.605866-100.352-8.311467-73.181867-8.311466-73.181866S653.226667 102.4 512 102.4c-141.226667 0-174.455467 96.170667-174.455467 96.170667s-8.311467 0-8.311466 73.181866c0 73.1648 16.622933 100.352 16.622933 100.352v20.8896s-16.622933 12.561067-14.5408 48.093867c2.065067 35.5328 37.376 54.357333 37.376 54.357333 12.458667 64.8192 45.687467 100.352 45.687467 100.352s8.311467 60.6208-2.065067 96.170667c-10.3936 35.5328-178.619733 89.9072-234.7008 129.621333C121.5488 857.122133 119.466667 938.666667 119.466667 938.666667h785.066666s-2.082133-81.544533-58.146133-119.159467z" p-id="2711" fill="#d81e06"></path></svg>