<?xml version="1.0" standalone="no"?><!DOCTYPE svg PUBLIC "-//W3C//DTD SVG 1.1//EN" "http://www.w3.org/Graphics/SVG/1.1/DTD/svg11.dtd"><svg t="1544882573021" class="icon" style="" viewBox="0 0 1024 1024" version="1.1" xmlns="http://www.w3.org/2000/svg" p-id="17125" xmlns:xlink="http://www.w3.org/1999/xlink" width="200" height="200"><defs><style type="text/css"></style></defs><path d="M410.239362 665.070234c-39.599903 39.60809-87.004563 59.409065-142.204769 59.409065-55.207369 0-102.611006-19.799952-142.211932-59.409065-39.600927-39.600927-59.400878-87.004563-59.400878-142.204769 0-55.168484 19.799952-102.611006 59.400878-142.211932s87.004563-59.400878 142.211932-59.400878c55.200206 0 102.603843 19.799952 142.204769 59.400878 39.600927 39.600927 59.409065 87.043449 59.409065 142.211932C469.648426 578.065671 449.840288 625.470331 410.239362 665.070234zM390.43941 400.454508c-33.602306-33.56342-74.4005-50.399877-122.403794-50.399877s-88.809675 16.835434-122.411981 50.399877c-33.602306 33.602306-50.399877 74.446549-50.399877 122.411981 0 48.003294 16.797571 88.840374 50.399877 122.403794 33.602306 33.602306 74.408687 50.40704 122.411981 50.40704s88.801489-16.804734 122.403794-50.40704c33.602306-33.56342 50.40704-74.4005 50.40704-122.403794C440.84645 474.90208 424.041716 434.056813 390.43941 400.454508zM268.035616 695.677323l489.63155 0 0 28.801976-489.63155 0L268.035616 695.677323zM899.870912 665.070234c-39.599903 39.60809-87.004563 59.409065-142.204769 59.409065-55.207369 0-102.611006-19.799952-142.211932-59.409065-39.600927-39.600927-59.400878-87.004563-59.400878-142.204769 0-55.168484 19.799952-102.611006 59.400878-142.211932 39.600927-39.600927 87.004563-59.400878 142.211932-59.400878 55.200206 0 102.603843 19.799952 142.204769 59.400878 39.600927 39.600927 59.409065 87.043449 59.409065 142.211932C959.279976 578.065671 939.471838 625.470331 899.870912 665.070234zM880.07096 400.454508c-33.602306-33.56342-74.4005-50.399877-122.403794-50.399877s-88.809675 16.835434-122.411981 50.399877c-33.602306 33.602306-50.399877 74.446549-50.399877 122.411981 0 48.003294 16.797571 88.840374 50.399877 122.403794 33.602306 33.602306 74.408687 50.40704 122.411981 50.40704s88.801489-16.804734 122.403794-50.40704c33.602306-33.56342 50.40704-74.4005 50.40704-122.403794C930.478 474.90208 913.673266 434.056813 880.07096 400.454508z" p-id="17126"></path></svg>