<?xml version="1.0" standalone="no"?><!DOCTYPE svg PUBLIC "-//W3C//DTD SVG 1.1//EN" "http://www.w3.org/Graphics/SVG/1.1/DTD/svg11.dtd"><svg t="1544877329952" class="icon" style="" viewBox="0 0 1024 1024" version="1.1" xmlns="http://www.w3.org/2000/svg" p-id="5428" xmlns:xlink="http://www.w3.org/1999/xlink" width="200" height="200"><defs><style type="text/css"></style></defs><path d="M992 512a32 32 0 0 0-32 32v416H64V64h412.48a32 32 0 0 0 0-64H64a64 64 0 0 0-64 64v896a64 64 0 0 0 64 64h896a64 64 0 0 0 64-64V544a32 32 0 0 0-32-32z" fill="#d81e06" p-id="5429"></path><path d="M378.56 748.8a32 32 0 0 0 64 0A480 480 0 0 1 912 271.36l-118.4 118.4a32 32 0 1 0 45.12 45.12l173.44-173.44a32 32 0 0 0 0-45.12l-173.12-173.44a32 32 0 0 0-45.44 45.44l119.04 119.04A544 544 0 0 0 378.56 748.8z" fill="#d81e06" p-id="5430"></path></svg>