<?xml version="1.0" standalone="no"?><!DOCTYPE svg PUBLIC "-//W3C//DTD SVG 1.1//EN" "http://www.w3.org/Graphics/SVG/1.1/DTD/svg11.dtd"><svg t="1545723080521" class="icon" style="" viewBox="0 0 1024 1024" version="1.1" xmlns="http://www.w3.org/2000/svg" p-id="6791" xmlns:xlink="http://www.w3.org/1999/xlink" width="200" height="200"><defs><style type="text/css"></style></defs><path d="M330.537433 700.947073l-64.89958 56.737743-8.353747 112.493358a26.890033 26.890033 0 0 1-9.279432 13.670794s-4.978381 8.331169 7.010374 8.127969l104.365388-173.55473z" fill="#F0BB31" p-id="6792"></path><path d="M387.862197 735.1297l-19.078151 84.068042-95.006935 60.813018a26.901322 26.901322 0 0 0-7.619971 14.6755s-5.644423 7.902193-11.142092-2.698034l104.365388-173.55473z" fill="#D69322" p-id="6793"></path><path d="M313.152609 667.136976l-10.442183 17.497713 111.657983 66.592907 10.555072-17.712201-111.770872-66.378419z" fill="#F0BB31" p-id="6794"></path><path d="M314.093167 792.477254m-13.636727 3.44809a14.065903 14.065903 0 1 0 27.273453-6.89618 14.065903 14.065903 0 1 0-27.273453 6.89618Z" fill="#4E5052" p-id="6795"></path><path d="M313.152609 667.136976l132.463328-222.119348 88.323937 52.673759-132.373017 221.961305-88.414248-52.515716z" fill="#4E5052" p-id="6796"></path><path d="M424.923481 733.515395l132.226262-221.701661-23.209869-14.122347-132.373017 221.961305 23.356624 13.862703z" fill="#353535" p-id="6797"></path><path d="M437.194457 408.170832l-13.99817 23.469512 110.743587 66.051043 14.822255-24.858041-111.567672-64.662514z" fill="#F0BB31" p-id="6798"></path><path d="M580.17899 525.834482l14.810967-25.241862-46.306849-27.612519-14.743234 24.711286 46.239116 28.143095z" fill="#D69322" p-id="6799"></path><path d="M661.23291 284.253161L547.938044 474.221874l-110.743587-66.051042 113.791575-190.804088 110.246878 66.886417z" fill="#4E5052" p-id="6800"></path><path d="M661.23291 284.253161L547.938044 474.221874l46.148805 27.894741 113.340022-190.036447-46.193961-27.827007z" fill="#353535" p-id="6801"></path><path d="M682.659141 193.400523c-2.05457-1.388528-4.131718-2.754479-6.310466-4.052696-43.123395-25.715993-92.783031-24.835463-114.118951 10.871159l-33.132766-19.755482-124.674023 209.103309 4.154295-1.286929 14.415858-3.646297 4.334917-7.270018a17.644467 17.644467 0 0 0 18.062155-30.310553L529.446913 206.05532l146.506653 87.375674 31.394283 18.716908 0.169332-0.282222-46.284271-27.623808c41.11398-40.989803 21.426231-90.84135 21.426231-90.841349z" fill="#F3BD32" p-id="6802"></path><path d="M718.546385 293.397127c20.16188-33.86654 2.867367-74.043546-35.842089-100.019182s16.210784 34.227783-21.595564 91.13486l46.284272 27.623808 11.175958-18.750775z" fill="#D69322" p-id="6803"></path><path d="M610.724519 211.840994m-16.624548 4.20357a17.147758 17.147758 0 1 0 33.249096-8.407141 17.147758 17.147758 0 1 0-33.249096 8.407141Z" fill="#FFFFFF" p-id="6804"></path><path d="M401.566857 719.652692l23.356624 13.862703-10.555072 17.712201-23.413068-13.964303 10.611516-17.610601z" fill="#D69322" p-id="6805"></path></svg>