<?xml version="1.0" standalone="no"?><!DOCTYPE svg PUBLIC "-//W3C//DTD SVG 1.1//EN" "http://www.w3.org/Graphics/SVG/1.1/DTD/svg11.dtd"><svg t="1545722976835" class="icon" style="" viewBox="0 0 1024 1024" version="1.1" xmlns="http://www.w3.org/2000/svg" p-id="3690" xmlns:xlink="http://www.w3.org/1999/xlink" width="200" height="200"><defs><style type="text/css"></style></defs><path d="M482.9 279.5L357.6 694.1l45.3 152.5 121.9-102L650 330z" fill="#FFDCB3" p-id="3691"></path><path d="M490.435 254.311l167.144 50.477L532.37 719.395l-167.145-50.477z" fill="#FECD44" p-id="3692"></path><path d="M388.3 797.1l14.6 49.5 39.6-33.1z" fill="#AEABA8" p-id="3693"></path><path d="M402.9 846.6l66.2-118.8 23.9-37.4 31.8 54.2z" fill="#CC9D71" p-id="3694"></path><path d="M424.4 808.1l-21.5 38.5 39.6-33.1z" fill="#231F20" p-id="3695"></path><path d="M413.4 710.9l-10.5 135.7 66.2-118.8 0.6-53.3-38.6 5.2z" fill="#F0BF92" p-id="3696"></path><path d="M413.4 710.9s-9-15.2-24.4-19.9c-15.4-4.7-31.3 3.1-31.3 3.1l125.2-414.6 55.7 16.8-125.2 414.6z" fill="#87ABFF" p-id="3697"></path><path d="M469.1 727.8s-8.5-15.1-24.4-19.9c-15.9-4.8-31.3 3.1-31.3 3.1l125.2-414.6 55.7 16.8-125.2 414.6z" fill="#3D74FF" p-id="3698"></path><path d="M524.8 744.6s-9.9-15.5-24.4-19.9-31.3 3.1-31.3 3.1l125.2-414.6L650 330 524.8 744.6z" fill="#1F53CC" p-id="3699"></path><path d="M406.3 802.6l-3.4 44 21.5-38.5z" fill="#63585B" p-id="3700"></path><path d="M650 330l-167.1-50.5 12.1-40c13.9-46.2 62.7-72.3 108.8-58.3 46.2 13.9 72.3 62.6 58.3 108.8L650 330z" fill="#FC355D" p-id="3701"></path><path d="M481.713 251.694l184.663 55.767-7.603 25.177-184.663-55.767z" fill="#FECD44" p-id="3702"></path><path d="M474.075 276.876l7.604-25.177 61.554 18.589-7.603 25.177z" fill="#FFCE87" p-id="3703"></path><path d="M535.656 295.425l7.603-25.177 61.554 18.59-7.603 25.176z" fill="#FFB53D" p-id="3704"></path><path d="M637.3 227.1c7.8 11.9 10.2 24.1 12.2 22.8s2.9-15.7-5-27.6c-7.8-11.9-21.3-16.8-23.3-15.5-1.9 1.3 8.3 8.4 16.1 20.3z" fill="#FFFFFF" p-id="3705"></path><path d="M533.7 312.5l4.9-16.2-55.7-16.8-7.4 24.2z" fill="#7898E3" p-id="3706"></path><path d="M591.8 321.2l2.5-8.1-55.7-16.8-4.9 16.2z" fill="#3463D9" p-id="3707"></path><path d="M650 330l-55.7-16.9-2.5 8.1z" fill="#1A46AB" p-id="3708"></path></svg>