<?xml version="1.0" standalone="no"?><!DOCTYPE svg PUBLIC "-//W3C//DTD SVG 1.1//EN" "http://www.w3.org/Graphics/SVG/1.1/DTD/svg11.dtd"><svg t="1544358406123" class="icon" style="" viewBox="0 0 1024 1024" version="1.1" xmlns="http://www.w3.org/2000/svg" p-id="1039" xmlns:xlink="http://www.w3.org/1999/xlink" width="200" height="200"><defs><style type="text/css"></style></defs><path d="M511.941818 46.126545c125.160727 0 242.315636 48.523636 330.333091 135.84291 88.017455 87.901091 136.005818 204.893091 136.005818 329.890909a464.686545 464.686545 0 0 1-136.005818 329.890909c-88.017455 87.901091-205.172364 135.842909-330.333091 135.842909s-242.315636-48.523636-330.309818-135.842909c-88.017455-87.901091-136.029091-204.893091-136.029091-329.890909A464.616727 464.616727 0 0 1 181.632 181.969455c88.017455-87.901091 205.149091-135.842909 330.309818-135.84291m0-45.66109C380.497455 0.465455 249.053091 50.129455 149.608727 149.992727c-199.447273 199.191273-199.447273 524.520727 0 723.712 99.444364 99.304727 230.888727 148.968727 362.333091 148.968728s262.888727-49.664 362.333091-149.527273c199.447273-199.191273 199.447273-524.520727 0-723.712C774.830545 50.106182 643.386182 0.465455 511.941818 0.465455z m0 0" fill="#d81e06" p-id="1040"></path><path d="M509.661091 336.616727l177.152 176.942546-177.152 176.942545-177.175273-176.942545 177.175273-176.942546m0-64.488727L267.927273 513.559273l241.733818 241.431272 241.733818-241.431272-241.733818-241.431273z m0 0" fill="#d81e06" p-id="1041"></path></svg>