<?xml version="1.0" standalone="no"?><!DOCTYPE svg PUBLIC "-//W3C//DTD SVG 1.1//EN" "http://www.w3.org/Graphics/SVG/1.1/DTD/svg11.dtd"><svg t="1544116858783" class="icon" style="" viewBox="0 0 1024 1024" version="1.1" xmlns="http://www.w3.org/2000/svg" p-id="7284" xmlns:xlink="http://www.w3.org/1999/xlink" width="200" height="200"><defs><style type="text/css"></style></defs><path d="M866.11456 97.1264c-0.41472-8.97536-8.86784-15.43168-17.61792-13.64992-357.74464 73.07264-471.8848 453.11488-480.30208 482.93376-0.4096 1.37728-0.8192 2.56-1.408 3.89632l-76.21632 173.19424-130.6112 187.1872 2.09408 12.71808 13.80864-5.7856 141.85984-198.06208c110.01344-131.47136 312.51968-370.21184 351.0528-376.61696l-226.7648 305.25952c103.82848 38.24128 189.74208-27.44832 207.7696-42.80832 1.59744-1.37728 0.96256-3.89632-1.08032-4.52608l-68.25472-21.58592 91.21792-26.15296a34.54976 34.54976 0 0 0 10.23488-4.81792c60.35456-42.59328 76.45696-106.02496 79.68256-122.04032 0.36864-1.8944-1.30048-3.41504-3.18976-3.0464l-82.31424 15.5392 89.76896-49.33632a33.32096 33.32096 0 0 0 10.75712-9.344c89.76896-121.56416 91.88352-256.54784 89.51296-302.95552z" p-id="7285" fill="#d81e06"></path></svg>