<?xml version="1.0" encoding="UTF-8"?>
<svg width="159px" height="74px" viewBox="0 0 159 74" version="1.1" xmlns="http://www.w3.org/2000/svg" xmlns:xlink="http://www.w3.org/1999/xlink">
    <!-- Generator: Sketch 52.5 (67469) - http://www.bohemiancoding.com/sketch -->
    <title>logo1</title>
    <desc>Created with Sketch.</desc>
    <g id="Page-1" stroke="none" stroke-width="1" fill="none" fill-rule="evenodd">
        <g id="logo" transform="translate(-27.000000, -341.000000)" fill-rule="nonzero">
            <g id="logo1" transform="translate(28.000000, 341.000000)">
                <path d="M47.2712816,33.1404863 C40.8010019,35.5000211 36.2307692,41.2638857 36.2307692,48 C36.2307692,56.836556 44.0955294,64 53.7972028,64 C63.4988762,64 71.3636364,56.836556 71.3636364,48" id="Path" stroke="#979797"></path>
                <path d="M84.5384615,48 C84.5384615,56.836556 92.4032217,64 102.104895,64 C111.806568,64 119.671329,56.836556 119.671329,48 C119.671329,41.2691047 115.108175,35.5089531 108.645852,33.1459768" id="Path" stroke="#979797"></path>
                <path d="M5.41017601,24.8633387 C5.46315758,24.8967355 5.61768966,25.2694976 5.67961048,25.3204394 C5.7415313,25.3713812 5.76150618,25.3713812 5.80254397,25.3967759 C6.96581043,26.1166205 8.17721113,26.7951239 9.43308596,27.3866678 C14.3354843,29.6958025 19.9008749,31 25.8006993,31 L33.6092198,31" id="Path" stroke="#979797"></path>
                <path d="M120.720173,29.8650724 C123.709476,30.6050683 126.854802,31 130.101399,31 C138.62362,31 146.448032,28.2787348 152.584361,23.7381709" id="Path" stroke="#979797"></path>
                <path d="M2.1958042,3.9825982 C2.1749645,4.49195225 0.594718042,6.82004064 0.594718042,7.29659135 C0.594718042,7.61429182 0.45910563,8.26477898 0.187880804,9.24805283 C0.763372196,14.9603626 2.64121908,20.3293853 5.54858761,25.106616" id="Path" stroke="#979797"></path>
                <path d="M151.992884,24.1892113 C154.938792,19.039912 156.705341,13.2416955 156.966289,7.09171218" id="Path" stroke="#979797"></path>
                <path d="M3.95589319,3.79770628 C4.22060118,3.61512536 4.39160839,3.32575231 4.39160839,3 C4.39160839,2.44771525 3.90006088,2 3.29370629,2 C2.68735171,2 2.1958042,2.44771525 2.1958042,3" id="Shape" stroke="#979797"></path>
                <path d="M153.706294,3 C153.706294,2.44771525 153.214746,2 152.608392,2 C152.002037,2 151.51049,2.44771525 151.51049,3 C151.51049,3.2432192 151.605821,3.46615808 151.764306,3.63950887" id="Path" stroke="#979797"></path>
                <path d="M120.71608,17.9879348 C120.870415,17.9879348 121.626629,17.9991342 121.780514,17.9974076 C121.958982,17.9954051 122.137144,17.9922449 122.314991,17.9879348 C122.598468,17.9810648 122.881146,17.9712733 123.162989,17.9585921 C126.785689,17.7955936 130.270515,17.1551833 133.543207,16.1049975 C134.786632,15.7059907 135.999434,15.2478313 137.177541,14.7342287 C143.320401,12.0562142 148.519989,7.87083242 152.19895,2.70395358 C152.48049,2.30854746 152.753125,1.90739332 153.016595,1.50072682" id="Path" stroke="#979797"></path>
                <path d="M120.769231,18 C101.111739,18 85.0031384,31.8396729 83.5476639,49.4049692" id="Path" stroke="#979797"></path>
                <path d="M72.4615385,52 C72.4615385,50.9690811 72.4111641,49.9488787 72.3125351,48.9413232 C70.6146847,31.5967511 54.617075,18 35.1328671,18" id="Path" stroke="#979797"></path>
                <path d="M3.9917685,3.10304786 C10.5889315,12.0854656 21.8280954,18 34.5839161,18 L35.3509504,18" id="Path" stroke="#979797"></path>
                <path d="M110.96491,14.3086708 C101.851063,7.84794087 90.3944173,4 77.951049,4 C69.6947156,4 61.8727861,5.69405269 54.881385,8.72135675 C51.2457757,10.2955898 47.8347513,12.23035 44.7040137,14.4749025" id="Path" stroke="#979797"></path>
                <path d="M111.024529,14.4557009 C97.5592382,18.7608437 86.0453009,26.8432108 78.0149892,37.3071655" id="Path" stroke="#979797"></path>
                <path d="M77.9200525,37.3501321 C69.8731474,26.8455526 58.317772,18.736181 44.8012225,14.4313384" id="Path" stroke="#979797"></path>
                <path d="M46.1118881,33 C46.7182427,33 47.2097902,32.5522847 47.2097902,32 C47.2097902,31.4477153 46.7182427,31 46.1118881,31" id="Path" stroke="#979797"></path>
                <path d="M109.79021,31 C109.183855,31 108.692308,31.4477153 108.692308,32 C108.692308,32.5522847 109.183855,33 109.79021,33" id="Path" stroke="#979797"></path>
                <path d="M126.258741,31 L109.06452,31 M47.0497145,31 L28.5454545,31" id="Shape" stroke="#979797"></path>
                <path d="M69.6678322,59.5377729 L86.2342657,59.5378799 L86.2342657,59.5 L69.6678322,59.5 L69.6678322,59.5377729 Z M79.7090884,73.5 L76.2594898,73.5 L76.2594898,73.0288954 L75.7883852,73.5 L75.7594898,73.5 L75.7739375,73.5144477 L75.7594898,73.5288954 L75.7883852,73.5288954 L76.2594898,74 L76.2594898,73.5288954 L79.7090884,73.5288954 L79.7090884,74 L80.1801929,73.5288954 L80.2090884,73.5288954 L80.1946406,73.5144477 L80.2090884,73.5 L80.1801929,73.5 L79.7090884,73.0288954 L79.7090884,73.5 Z M76.2594898,73.5 L75.7883852,73.5 L75.7739375,73.5144477 L75.7883852,73.5288954 L76.2594898,73.5288954 L76.2594898,73.5 Z" id="Shape" stroke="#979797"></path>
                <path d="M79.59133,73.3320452 C81.8069324,68.8932767 83.7544935,64.3200154 85.4151842,59.6294113" id="Path" stroke="#9B9B9B"></path>
                <path d="M70.4536306,59.5352791 C72.155744,64.3556298 74.1607478,69.0522602 76.4482272,73.6065761" id="Shape" stroke="#979797"></path>
                <path d="M157,12 C157,11.3669457 156.959635,10.7424784 156.881122,10.1286168 C156.413451,6.47208047 154.592229,3.19184726 151.885877,0.71456604" id="Path" stroke="#979797"></path>
                <path d="M4.26495621,1.54884741 C1.60728348,4.35248245 -1.13686838e-13,8.00527827 -1.13686838e-13,12 C-1.13686838e-13,12.4342906 0.55744003,12.9247355 0.594718042,13.3502918" id="Path" stroke="#979797"></path>
            </g>
        </g>
    </g>
</svg>